<svg width="24" height="24" viewBox="0 0 24 24" fill="none" xmlns="http://www.w3.org/2000/svg">
<path fill-rule="evenodd" clip-rule="evenodd" d="M15.85 2.00016C16.481 2.00016 17.111 2.08916 17.71 2.29016C21.401 3.49016 22.731 7.54016 21.62 11.0802C20.99 12.8892 19.96 14.5402 18.611 15.8892C16.68 17.7592 14.561 19.4192 12.28 20.8492L12.03 21.0002L11.77 20.8392C9.48102 19.4192 7.35002 17.7592 5.40102 15.8792C4.06102 14.5302 3.03002 12.8892 2.39002 11.0802C1.26002 7.54016 2.59002 3.49016 6.32102 2.26916C6.61102 2.16916 6.91002 2.09916 7.21002 2.06016H7.33002C7.61102 2.01916 7.89002 2.00016 8.17002 2.00016H8.28002C8.91002 2.01916 9.52002 2.12916 10.111 2.33016H10.17C10.21 2.34916 10.24 2.37016 10.26 2.38916C10.481 2.46016 10.69 2.54016 10.89 2.65016L11.27 2.82016C11.3618 2.86913 11.4649 2.94396 11.554 3.00863C11.6104 3.0496 11.6612 3.0865 11.7 3.11016C11.7163 3.11979 11.7329 3.12947 11.7496 3.13923C11.8354 3.18928 11.9247 3.24142 12 3.29916C13.111 2.45016 14.46 1.99016 15.85 2.00016ZM18.51 9.20016C18.92 9.18916 19.27 8.86016 19.3 8.43916V8.32016C19.33 6.91916 18.481 5.65016 17.19 5.16016C16.78 5.01916 16.33 5.24016 16.18 5.66016C16.04 6.08016 16.26 6.54016 16.68 6.68916C17.321 6.92916 17.75 7.56016 17.75 8.25916V8.29016C17.731 8.51916 17.8 8.74016 17.94 8.91016C18.08 9.08016 18.29 9.17916 18.51 9.20016Z" fill="white"/>
</svg>
